<?xml version="1.0" encoding="UTF-8"?>
<svg id="_レイヤー_2" data-name="レイヤー 2" xmlns="http://www.w3.org/2000/svg" viewBox="0 0 16 16">
  <defs>
    <style>
      .cls-1 {
        fill: #e97373;
      }
    </style>
  </defs>
  <g id="_レイヤー_1-2" data-name="レイヤー 1">
    <path class="cls-1" d="M6.94,11l4.96-4.94-1.06-1.06-3.9,3.88-1.77-1.75-1.06,1.06,2.83,2.81ZM8,16c-1.1,0-2.13-.21-3.1-.63s-1.82-.99-2.55-1.72-1.3-1.58-1.72-2.55-.63-2.01-.63-3.1.21-2.15.63-3.11.99-1.81,1.72-2.54,1.58-1.3,2.55-1.72,2.01-.63,3.1-.63,2.15.21,3.11.63,1.81.99,2.54,1.72,1.3,1.58,1.72,2.54.63,2,.63,3.11-.21,2.13-.63,3.1-.99,1.82-1.72,2.55-1.58,1.3-2.54,1.72-2,.63-3.11.63Z"/>
  </g>
</svg>